<svg width="70" height="70" viewBox="0 0 70 70" fill="none" xmlns="http://www.w3.org/2000/svg">
<path fill-rule="evenodd" clip-rule="evenodd" d="M35 68.8333C53.6856 68.8333 68.8333 53.6856 68.8333 35C68.8333 16.3144 53.6856 1.16667 35 1.16667C16.3144 1.16667 1.16667 16.3144 1.16667 35C1.16667 53.6856 16.3144 68.8333 35 68.8333ZM35 70C54.33 70 70 54.33 70 35C70 15.67 54.33 0 35 0C15.67 0 0 15.67 0 35C0 54.33 15.67 70 35 70Z" fill="black"/>
<path d="M34.8056 39.6671C31.8646 39.6671 29.3469 38.6199 27.2526 36.5256C25.1583 34.4313 24.1111 31.9136 24.1111 28.9727C24.1111 26.0317 25.1583 23.514 27.2526 21.4197C29.3469 19.3254 31.8646 18.2782 34.8056 18.2782C37.7465 18.2782 40.2642 19.3254 42.3585 21.4197C44.4528 23.514 45.5 26.0317 45.5 28.9727C45.5 31.9136 44.4528 34.4313 42.3585 36.5256C40.2642 38.6199 37.7465 39.6671 34.8056 39.6671ZM13.4167 61.056V53.5699C13.4167 52.0548 13.807 50.6619 14.5877 49.391C15.3684 48.1202 16.404 47.1514 17.6944 46.4848C20.4572 45.1034 23.2645 44.067 26.1163 43.3754C28.9682 42.6838 31.8646 42.3389 34.8056 42.3407C37.7465 42.3407 40.6429 42.6865 43.4948 43.3781C46.3466 44.0696 49.1539 45.1052 51.9167 46.4848C53.2089 47.1532 54.2454 48.1228 55.0261 49.3937C55.8068 50.6646 56.1962 52.0566 56.1944 53.5699V61.3737C43.75 72.0677 25.6667 71.1667 13.4167 61.056Z" fill="black"/>
</svg>
