<svg width="37" height="36" viewBox="0 0 37 36" fill="none" xmlns="http://www.w3.org/2000/svg">
<path fill-rule="evenodd" clip-rule="evenodd" d="M10.0531 5.03533C10.7645 3.52921 11.8893 2.25627 13.2964 1.36479C14.7035 0.47331 16.3349 0 18.0006 0C19.6663 0 21.2977 0.47331 22.7048 1.36479C24.1118 2.25627 25.2366 3.52921 25.9481 5.03533C28.1225 4.93894 30.2654 5.58225 32.0272 6.86029C33.789 8.13834 35.0657 9.97569 35.649 12.0726C36.2323 14.1695 36.0878 16.4022 35.2391 18.4064C34.3904 20.4107 32.8876 22.0682 30.9758 23.1085V28.1345C30.9758 29.6396 30.9758 30.8936 30.8418 31.8881C30.7012 32.9395 30.3898 33.8888 29.6264 34.6506C28.8646 35.414 27.9153 35.7254 26.8639 35.8661C25.8694 36 24.6137 36 23.1103 36H12.8909C11.3874 36 10.1318 36 9.13727 35.8661C8.08586 35.7254 7.13658 35.414 6.37481 34.6506C5.61137 33.8888 5.29996 32.9395 5.15933 31.8881C5.02539 30.8936 5.02539 29.6396 5.02539 28.1345V23.1102C3.11358 22.0699 1.61074 20.4124 0.762035 18.4081C-0.0866719 16.4039 -0.231146 14.1712 0.352181 12.0743C0.935508 9.97736 2.21221 8.14001 3.97399 6.86197C5.73578 5.58392 7.87867 4.93894 10.0531 5.03533ZM9.29967 7.54666C7.69475 7.62083 6.16216 8.23598 4.95133 9.292C3.74049 10.348 2.92269 11.7827 2.631 13.3627C2.33931 14.9426 2.59091 16.5748 3.34484 17.9935C4.09878 19.4123 5.31068 20.5341 6.78332 21.1765C7.00715 21.2742 7.19763 21.435 7.33144 21.6393C7.46526 21.8436 7.53659 22.0824 7.53672 22.3267V28.0475C7.53672 29.6614 7.54007 30.7463 7.64889 31.5549C7.75269 32.3268 7.93184 32.6583 8.15116 32.8759C8.36881 33.0936 8.69863 33.2727 9.47044 33.3782C10.2791 33.4853 11.364 33.4887 12.9779 33.4887H23.0232C24.6372 33.4887 25.7221 33.4853 26.5307 33.3765C27.3025 33.2727 27.634 33.0936 27.8517 32.8742C28.0693 32.6566 28.2485 32.3268 28.354 31.5549C28.4611 30.7463 28.4645 29.6614 28.4645 28.0475V22.3283C28.4646 22.0841 28.5359 21.8452 28.6697 21.641C28.8035 21.4367 28.994 21.2758 29.2179 21.1781C30.6909 20.5357 31.9031 19.4137 32.6573 17.9946C33.4115 16.5755 33.6632 14.943 33.3716 13.3627C33.0799 11.7823 32.2619 10.3472 31.0508 9.29091C29.8397 8.23459 28.3068 7.61923 26.7015 7.54498C26.7601 7.95349 26.7902 8.37037 26.7902 8.79395V9.63106C26.7902 9.96408 26.6579 10.2835 26.4225 10.5189C26.187 10.7544 25.8676 10.8867 25.5346 10.8867C25.2015 10.8867 24.8822 10.7544 24.6467 10.5189C24.4112 10.2835 24.2789 9.96408 24.2789 9.63106V8.79395C24.2798 7.96922 24.118 7.15242 23.8028 6.3903C23.4876 5.62818 23.0252 4.93571 22.442 4.35254C21.8588 3.76937 21.1664 3.30695 20.4042 2.99174C19.6421 2.67654 18.8253 2.51475 18.0006 2.51563C16.3357 2.51652 14.7393 3.17827 13.5621 4.35549C12.3849 5.53271 11.7232 7.12911 11.7223 8.79395V9.63106C11.7223 9.96408 11.59 10.2835 11.3545 10.5189C11.119 10.7544 10.7996 10.8867 10.4666 10.8867C10.1336 10.8867 9.8142 10.7544 9.57871 10.5189C9.34323 10.2835 9.21094 9.96408 9.21094 9.63106V8.79395C9.21094 8.37037 9.24107 7.95349 9.29967 7.54666ZM11.7223 28.0475C11.7223 27.7144 11.8546 27.3951 12.09 27.1596C12.3255 26.9241 12.6449 26.7918 12.9779 26.7918H23.0232C23.3563 26.7918 23.6756 26.9241 23.9111 27.1596C24.1466 27.3951 24.2789 27.7144 24.2789 28.0475C24.2789 28.3805 24.1466 28.6999 23.9111 28.9354C23.6756 29.1708 23.3563 29.3031 23.0232 29.3031H12.9779C12.6449 29.3031 12.3255 29.1708 12.09 28.9354C11.8546 28.6999 11.7223 28.3805 11.7223 28.0475Z" fill="black"/>
</svg>
