<svg width="28" height="35" viewBox="0 0 28 35" fill="none" xmlns="http://www.w3.org/2000/svg">
<path d="M24.6412 15.9449C24.194 15.3615 23.6495 14.856 23.1439 14.3504C21.8411 13.1837 20.3633 12.3476 19.1188 11.1225C16.2215 8.28357 15.5798 3.59732 17.4271 0C15.5798 0.447235 13.9659 1.45838 12.5853 2.56674C7.54905 6.6113 5.56566 13.7476 7.93795 19.8728C8.01573 20.0672 8.09351 20.2617 8.09351 20.5145C8.09351 20.9423 7.80183 21.3312 7.41293 21.4867C6.9657 21.6812 6.49902 21.5645 6.12956 21.2534C6.01854 21.1616 5.92613 21.0494 5.85733 20.9228C3.66005 18.1422 3.31004 14.156 4.78786 10.967C1.54054 13.6115 -0.228952 18.0838 0.0238332 22.3034C0.140503 23.2757 0.257173 24.2479 0.587738 25.2202C0.859968 26.3869 1.38498 27.5536 1.96833 28.5841C4.06839 31.9481 7.70461 34.3593 11.6131 34.8454C15.7743 35.3705 20.2272 34.6121 23.4162 31.7342C26.9746 28.5064 28.2191 23.334 26.3913 18.9005L26.1385 18.395C25.7301 17.5005 24.6412 15.9449 24.6412 15.9449ZM18.4966 28.1952C17.9521 28.6619 17.0577 29.1675 16.3576 29.3619C14.1798 30.1397 12.002 29.0508 10.7186 27.7675C13.0325 27.223 14.4131 25.5118 14.8215 23.7812C15.152 22.2256 14.5298 20.9423 14.277 19.445C14.0437 18.0061 14.0826 16.781 14.6076 15.4393C14.977 16.1782 15.3659 16.9171 15.8326 17.5005C17.3299 19.445 19.6827 20.3006 20.1883 22.9451C20.2661 23.2173 20.305 23.4896 20.305 23.7812C20.3633 25.3757 19.6633 27.1258 18.4966 28.1952Z" fill="black"/>
</svg>
