<svg width="184" height="184" viewBox="0 0 184 184" fill="none" xmlns="http://www.w3.org/2000/svg">
<path d="M128.799 73.5992C128.799 83.359 124.921 92.7192 118.02 99.6204C111.119 106.522 101.759 110.399 91.999 110.399C82.2391 110.399 72.879 106.522 65.9777 99.6204C59.0765 92.7192 55.1994 83.359 55.1994 73.5992C55.1994 63.8393 59.0765 54.4792 65.9777 47.5779C72.879 40.6767 82.2391 36.7996 91.999 36.7996C101.759 36.7996 111.119 40.6767 118.02 47.5779C124.921 54.4792 128.799 63.8393 128.799 73.5992Z" fill="#41271F"/>
<path fill-rule="evenodd" clip-rule="evenodd" d="M88.2454 183.924C39.1778 181.956 0 141.55 0 91.999C0 41.1879 41.188 0 91.999 0C142.81 0 183.998 41.1879 183.998 91.999C183.998 142.81 142.81 183.998 91.999 183.998C91.5789 184.001 91.1587 184.001 90.7386 183.998C89.906 183.998 89.0734 183.97 88.2454 183.924ZM32.9632 150.05C32.2754 148.075 32.0412 145.97 32.2782 143.892C32.5152 141.814 33.2172 139.815 34.3321 138.046C35.447 136.276 36.9462 134.78 38.7183 133.669C40.4905 132.558 42.4902 131.86 44.5689 131.628C80.4301 127.658 103.789 128.017 139.475 131.71C141.557 131.927 143.561 132.616 145.336 133.725C147.111 134.833 148.61 136.332 149.718 138.108C150.826 139.883 151.514 141.888 151.731 143.969C151.947 146.051 151.685 148.154 150.966 150.119C166.26 134.645 174.825 113.756 174.798 91.999C174.798 46.2709 137.727 9.1999 91.999 9.1999C46.2709 9.1999 9.1999 46.2709 9.1999 91.999C9.1999 114.612 18.2664 135.11 32.9632 150.05Z" fill="#41271F"/>
</svg>
