<svg width="35" height="35" viewBox="0 0 35 35" fill="none" xmlns="http://www.w3.org/2000/svg">
<path d="M32.8306 17.4994L34.7648 14.1565C34.9973 13.7543 35.0605 13.2763 34.9406 12.8275C34.8207 12.3786 34.5274 11.9958 34.1253 11.7632L30.7789 9.82895V5.97444C30.7789 5.50977 30.5943 5.06413 30.2658 4.73555C29.9372 4.40698 29.4915 4.22239 29.0269 4.22239H25.1741L23.2416 0.877728C23.0082 0.476363 22.6262 0.18305 22.1781 0.0612735C21.9559 0.00103089 21.7239 -0.0145029 21.4957 0.0155723C21.2674 0.0456476 21.0473 0.120734 20.8483 0.236479L17.5019 2.17074L14.1555 0.234726C13.7531 0.00240062 13.2749 -0.0605586 12.826 0.0596983C12.3772 0.179955 11.9945 0.473578 11.7622 0.875976L9.82792 4.22239H5.97517C5.5105 4.22239 5.06486 4.40698 4.73629 4.73555C4.40771 5.06413 4.22312 5.50977 4.22312 5.97444V9.82719L0.876708 11.7615C0.677031 11.8763 0.502017 12.0295 0.361719 12.2122C0.221422 12.3949 0.118608 12.6035 0.0591834 12.8261C-0.000241064 13.0486 -0.0151044 13.2807 0.0154472 13.5091C0.0459989 13.7374 0.121363 13.9574 0.237211 14.1565L2.17147 17.4994L0.237211 20.8423C0.00592062 21.2449 -0.0568321 21.7226 0.0626338 22.1712C0.1821 22.6199 0.474095 23.0031 0.874956 23.2374L4.22137 25.1716V29.0244C4.22137 29.4891 4.40596 29.9347 4.73453 30.2633C5.06311 30.5918 5.50875 30.7764 5.97342 30.7764H9.82792L11.7622 34.1229C11.9173 34.388 12.1388 34.6082 12.4048 34.7618C12.6708 34.9154 12.9723 34.9971 13.2795 34.9989C13.5843 34.9989 13.8874 34.9183 14.1572 34.7624L17.5001 32.8281L20.8466 34.7624C21.2489 34.9944 21.7268 35.0573 22.1754 34.9374C22.6241 34.8175 23.0069 34.5246 23.2399 34.1229L25.1724 30.7764H29.0251C29.4898 30.7764 29.9354 30.5918 30.264 30.2633C30.5926 29.9347 30.7772 29.4891 30.7772 29.0244V25.1716L34.1236 23.2374C34.3229 23.1222 34.4976 22.9688 34.6376 22.7861C34.7777 22.6034 34.8803 22.3948 34.9397 22.1724C34.9991 21.95 35.0141 21.718 34.9838 21.4898C34.9535 21.2616 34.8785 21.0415 34.7631 20.8423L32.8306 17.4994ZM13.12 8.72165C13.8173 8.72188 14.4859 8.99908 14.9787 9.49227C15.4716 9.98546 15.7483 10.6542 15.7481 11.3515C15.7479 12.0487 15.4707 12.7173 14.9775 13.2102C14.4843 13.703 13.8155 13.9798 13.1183 13.9795C12.421 13.9793 11.7524 13.7021 11.2596 13.2089C10.7667 12.7157 10.49 12.047 10.4902 11.3497C10.4904 10.6525 10.7676 9.98389 11.2608 9.49103C11.754 8.99817 12.4228 8.72142 13.12 8.72165ZM13.6456 25.5413L10.8424 23.4406L21.3547 9.42422L24.1579 11.5249L13.6456 25.5413ZM21.8803 26.2421C21.535 26.242 21.1932 26.1739 20.8743 26.0417C20.5554 25.9095 20.2656 25.7157 20.0216 25.4715C19.7775 25.2273 19.584 24.9374 19.452 24.6184C19.32 24.2994 19.2521 23.9576 19.2522 23.6123C19.2523 23.2671 19.3204 22.9252 19.4526 22.6063C19.5849 22.2874 19.7786 21.9977 20.0228 21.7536C20.267 21.5096 20.5569 21.316 20.8759 21.184C21.1949 21.052 21.5368 20.9841 21.882 20.9842C22.5793 20.9845 23.2479 21.2617 23.7407 21.7549C24.2336 22.248 24.5103 22.9168 24.5101 23.6141C24.5099 24.3113 24.2327 24.9799 23.7395 25.4728C23.2463 25.9656 22.5775 26.2424 21.8803 26.2421Z" fill="black"/>
</svg>
