<svg width="71" height="71" viewBox="0 0 71 71" fill="none" xmlns="http://www.w3.org/2000/svg">
<path d="M71 35.3052C71 54.6351 55.33 70.3052 36 70.3052C16.67 70.3052 1 54.6351 1 35.3052C1 15.9752 16.67 0.305176 36 0.305176C55.33 0.305176 71 15.9752 71 35.3052Z" fill="#41271F"/>
<path d="M8.69531 41.366L31.4641 62.9688L0.591309 70.9999L8.69531 41.366Z" fill="#41271F"/>
<path d="M3.24676 35.3557C3.24517 41.1137 4.74967 46.7359 7.61045 51.6914L2.97317 68.6229L20.3004 64.0796C25.0929 66.6886 30.4625 68.0557 35.9192 68.056H35.9335C53.9469 68.056 68.6102 53.3981 68.6179 35.3815C68.6213 26.6512 65.2245 18.4418 59.053 12.2655C52.8825 6.08971 44.676 2.68679 35.9322 2.68281C17.9167 2.68281 3.2542 17.34 3.24676 35.3557Z" fill="url(#paint0_linear_186_565)"/>
<path d="M2.07987 35.3451C2.07801 41.3103 3.63644 47.1336 6.59922 52.2665L1.79565 69.8049L19.7442 65.0988C24.6896 67.7952 30.2576 69.2168 35.9234 69.2189H35.938C54.5977 69.2189 69.7877 54.0337 69.7957 35.3722C69.7988 26.3282 66.2798 17.8237 59.8878 11.4261C53.495 5.02934 44.995 1.50396 35.938 1.50024C17.2752 1.50024 2.08731 16.6834 2.07987 35.3451ZM12.7686 51.3825L12.0985 50.3187C9.28123 45.8392 7.79426 40.6627 7.79639 35.3472C7.8025 19.8361 20.4261 7.21649 35.9487 7.21649C43.4658 7.21968 50.5304 10.1501 55.844 15.4668C61.1573 20.7841 64.081 27.8524 64.0791 35.3701C64.0722 50.8813 51.4484 63.5024 35.938 63.5024H35.9269C30.8765 63.4998 25.9234 62.1435 21.6038 59.5805L20.5759 58.9709L9.92484 61.7634L12.7686 51.3825Z" fill="url(#paint1_linear_186_565)"/>
<path d="M27.4757 21.1958C26.842 19.7872 26.175 19.7588 25.5723 19.7341C25.0787 19.7128 24.5146 19.7144 23.9509 19.7144C23.3867 19.7144 22.47 19.9266 21.6952 20.7727C20.9196 21.6195 18.734 23.6659 18.734 27.8279C18.734 31.9903 21.7656 36.0126 22.1882 36.5776C22.6114 37.1415 28.0407 45.956 36.6395 49.347C43.7859 52.165 45.2402 51.6046 46.7912 51.4632C48.3425 51.3225 51.7966 49.4174 52.5013 47.4419C53.2066 45.4668 53.2066 43.7737 52.9951 43.4199C52.7837 43.0674 52.2195 42.8557 51.3735 42.4328C50.5272 42.0096 46.3681 39.963 45.5927 39.6807C44.8171 39.3986 44.2532 39.2578 43.689 40.1049C43.1248 40.9506 41.5047 42.8557 41.0109 43.4199C40.5177 43.9854 40.0239 44.0558 39.1781 43.6326C38.3316 43.2081 35.6071 42.3159 32.3747 39.4341C29.8597 37.1917 28.1619 34.4226 27.6683 33.5755C27.1748 32.7298 27.6155 32.2713 28.0397 31.8498C28.4198 31.4707 28.886 30.8619 29.3094 30.3681C29.7312 29.874 29.872 29.5216 30.154 28.9574C30.4364 28.3926 30.2951 27.8986 30.0839 27.4754C29.872 27.0523 28.228 22.8684 27.4757 21.1958Z" fill="white"/>
<defs>
<linearGradient id="paint0_linear_186_565" x1="3401.8" y1="6831.97" x2="3401.8" y2="1.50024" gradientUnits="userSpaceOnUse">
<stop stop-color="#1FAF38"/>
<stop offset="1" stop-color="#60D669"/>
</linearGradient>
<linearGradient id="paint1_linear_186_565" x1="3401.8" y1="6831.97" x2="3401.8" y2="1.50024" gradientUnits="userSpaceOnUse">
<stop stop-color="#F9F9F9"/>
<stop offset="1" stop-color="white"/>
</linearGradient>
</defs>
</svg>
